<?xml version="1.0" encoding="UTF-8"?>
<svg version="1.1" xmlns="http://www.w3.org/2000/svg" width="300" height="300">
<path d="M0 0 C1.44207358 -0.00807831 1.44207358 -0.00807831 2.91327995 -0.01631981 C6.12525557 -0.03059387 9.33681877 -0.02349695 12.54881287 -0.01637268 C14.85535513 -0.02207643 17.16189457 -0.02904071 19.46842957 -0.03717041 C25.7265235 -0.0551139 31.98447731 -0.05393142 38.24258924 -0.04822803 C43.4665452 -0.04513865 48.69047415 -0.05122567 53.91442627 -0.05726677 C66.94008325 -0.07211655 79.96566147 -0.06849508 92.99131816 -0.05640347 C104.30007068 -0.04646638 115.60865971 -0.0594214 126.91738702 -0.08333766 C138.53644441 -0.10772472 150.15541884 -0.11693798 161.77450126 -0.11068493 C168.29492518 -0.10731081 174.81521392 -0.10976112 181.33561897 -0.12693596 C187.46457206 -0.1423754 193.59321213 -0.13848263 199.72215271 -0.11963081 C201.97238034 -0.115937 204.22263101 -0.11907635 206.47283745 -0.1295166 C209.54263899 -0.14267318 212.61139608 -0.1312258 215.68115234 -0.11352539 C216.57327331 -0.1231304 217.46539427 -0.1327354 218.3845492 -0.14263147 C223.92004863 -0.07687838 227.08951523 0.65483557 231.27708435 4.38768005 C231.72775583 7.60676207 231.73236035 9.47712805 230.27708435 12.38768005 C229.61708435 12.38768005 228.95708435 12.38768005 228.27708435 12.38768005 C227.88202698 13.27278259 227.88202698 13.27278259 227.47898865 14.17576599 C226.22506783 16.48340821 224.92513174 17.954954 223.0466156 19.77830505 C222.41199402 20.40132507 221.77737244 21.02434509 221.1235199 21.66624451 C220.45232117 22.31681824 219.78112244 22.96739197 219.08958435 23.63768005 C214.53279463 28.11726331 210.08617589 32.58575668 205.9684906 37.4775238 C202.92463014 40.91504751 199.60091855 44.08073611 196.31614685 47.28611755 C194.23582344 49.21864052 194.23582344 49.21864052 193.27708435 51.38768005 C192.61708435 51.38768005 191.95708435 51.38768005 191.27708435 51.38768005 C191.27708435 52.04768005 191.27708435 52.70768005 191.27708435 53.38768005 C190.61708435 53.38768005 189.95708435 53.38768005 189.27708435 53.38768005 C189.01540466 53.97420349 188.75372498 54.56072693 188.4841156 55.1650238 C187.21138775 57.50865534 185.85409016 59.07743261 183.96458435 60.95018005 C183.39095154 61.52896912 182.81731873 62.10775818 182.2263031 62.7040863 C176.74888788 67.43508021 172.6846386 67.81737061 165.67405701 67.75517273 C164.21511237 67.76007599 164.21511237 67.76007599 162.72669411 67.76507831 C159.46468678 67.77236632 156.20312682 67.75819457 152.94114685 67.74412537 C150.60372338 67.74491613 148.26630005 67.74701307 145.92887878 67.75032043 C139.57773944 67.75545936 133.22676183 67.74190895 126.8756485 67.72479343 C120.90715554 67.71129244 114.9386734 67.71100777 108.9701674 67.71041688 C97.14340747 67.70872908 85.31670893 67.69291748 73.48997498 67.66893005 C62.01470938 67.64567239 50.5394827 67.63150526 39.06419373 67.62791443 C38.35742941 67.62769166 37.6506651 67.62746889 36.92248368 67.62723938 C35.49868182 67.62679677 34.07487996 67.62635475 32.6510781 67.62591331 C31.59754101 67.62558396 31.59754101 67.62558396 30.52272034 67.62524796 C29.47183768 67.62492398 29.47183768 67.62492398 28.39972508 67.62459345 C16.80233905 67.6206678 5.20496082 67.60796918 -6.39241791 67.59490108 C-10.3517657 67.59080107 -14.31111311 67.58787594 -18.27046204 67.5851059 C-24.48875652 67.58021372 -30.70702096 67.5700116 -36.9253006 67.55566788 C-39.20980813 67.55114397 -41.49431971 67.54830599 -43.77883148 67.54726028 C-46.8925473 67.5455151 -50.00618793 67.53763347 -53.11988831 67.52812195 C-54.02795919 67.52898843 -54.93603008 67.52985491 -55.87161827 67.53074765 C-64.20484665 67.49245554 -64.20484665 67.49245554 -67.72291565 66.38768005 C-69.37662845 63.08025444 -69.25654574 61.06379845 -68.72291565 57.38768005 C-66.86471295 55.11466217 -64.87106626 53.22055093 -62.66822815 51.2822113 C-60.7090401 49.37416672 -59.90563614 47.81152697 -58.72291565 45.38768005 C-57.1721344 43.8603363 -57.1721344 43.8603363 -55.41041565 42.45018005 C-51.35034657 39.10062306 -47.6591416 35.79201899 -44.72291565 31.38768005 C-44.06291565 31.38768005 -43.40291565 31.38768005 -42.72291565 31.38768005 C-42.39291565 30.39768005 -42.06291565 29.40768005 -41.72291565 28.38768005 C-41.06291565 28.38768005 -40.40291565 28.38768005 -39.72291565 28.38768005 C-39.49604065 27.83080505 -39.26916565 27.27393005 -39.03541565 26.70018005 C-37.35574847 23.74076645 -35.15539713 21.7635922 -32.72291565 19.38768005 C-31.91854065 18.39768005 -31.11416565 17.40768005 -30.28541565 16.38768005 C-27.65540333 13.30864124 -24.86041225 10.93689604 -21.72291565 8.38768005 C-20.91854065 7.52143005 -20.11416565 6.65518005 -19.28541565 5.76268005 C-13.44004187 0.34501656 -7.61273192 -0.05141405 0 0 Z " fill="#000000" transform="translate(68.72291564941406,17.612319946289063)"/>
<path d="M0 0 C1.24904317 -0.00874829 1.24904317 -0.00874829 2.52331954 -0.01767331 C3.43293903 -0.01389399 4.34255852 -0.01011467 5.27974224 -0.00622082 C6.73528854 -0.01195914 6.73528854 -0.01195914 8.22023982 -0.01781338 C11.48058172 -0.02815441 14.74074788 -0.02414909 18.00110149 -0.02018261 C20.33513331 -0.02452851 22.66916369 -0.02971125 25.00319195 -0.03567028 C31.35034613 -0.04908575 37.69744085 -0.04963603 44.04460645 -0.04710698 C50.00993576 -0.04590377 55.975255 -0.0521115 61.94058128 -0.05754044 C74.47929038 -0.06841955 87.01797259 -0.06625198 99.55668321 -0.06015559 C111.02335182 -0.05498845 122.48993543 -0.06623582 133.95658723 -0.08525381 C145.73261494 -0.10463501 157.50860245 -0.11288757 169.28464621 -0.10913056 C175.89511053 -0.10731614 182.50549703 -0.10996965 189.11594868 -0.1238451 C195.33345803 -0.1364067 201.55079718 -0.13449497 207.76830387 -0.12143421 C210.05036126 -0.11906512 212.33243056 -0.12181498 214.6144743 -0.13005733 C217.72990177 -0.14049823 220.8447554 -0.13244501 223.96016216 -0.11974621 C224.86308949 -0.12712049 225.76601681 -0.13449478 226.69630557 -0.14209253 C233.24888628 -0.0859112 238.01009613 0.99624363 243.23816204 5.21223927 C243.9529472 5.94160694 244.66773235 6.67097462 245.40417767 7.42244434 C246.2072636 8.23390919 247.01034954 9.04537403 247.83777142 9.88142872 C249.06173626 11.14889942 249.06173626 11.14889942 250.31042767 12.44197559 C251.53439251 13.68044239 251.53439251 13.68044239 252.78308392 14.94392872 C257.10169839 19.3422608 261.25055603 23.84175898 265.27380657 28.51057911 C268.0347452 31.64394178 271.07491836 34.48455516 274.08777142 37.37166309 C275.81042767 39.25447559 275.81042767 39.25447559 275.81042767 41.25447559 C276.47042767 41.25447559 277.13042767 41.25447559 277.81042767 41.25447559 C279.29089642 42.72322559 279.29089642 42.72322559 280.99792767 44.75447559 C282.89582799 47.01122261 284.78449073 49.22743282 286.82605267 51.35603809 C291.67890548 56.46534248 291.67890548 56.46534248 292.37292767 60.62947559 C291.81042767 63.25447559 291.81042767 63.25447559 289.81042767 65.25447559 C288.82042767 65.25447559 287.83042767 65.25447559 286.81042767 65.25447559 C286.81042767 65.91447559 286.81042767 66.57447559 286.81042767 67.25447559 C207.94042767 67.25447559 129.07042767 67.25447559 47.81042767 67.25447559 C47.81042767 66.59447559 47.81042767 65.93447559 47.81042767 65.25447559 C47.24066204 65.17713184 46.67089642 65.09978809 46.08386517 65.02010059 C43.0448379 63.99664811 41.62794387 62.32777347 39.43542767 60.00447559 C36.80568741 57.27041506 34.22388766 54.67088219 31.24792767 52.31697559 C30.44355267 51.63635059 29.63917767 50.95572559 28.81042767 50.25447559 C28.81042767 49.59447559 28.81042767 48.93447559 28.81042767 48.25447559 C27.82042767 47.92447559 26.83042767 47.59447559 25.81042767 47.25447559 C25.12292767 45.19197559 25.12292767 45.19197559 24.81042767 43.25447559 C24.15042767 43.25447559 23.49042767 43.25447559 22.81042767 43.25447559 C21.22449017 41.60994434 21.22449017 41.60994434 19.43542767 39.44197559 C17.08005635 36.59374023 14.78191792 34.43834193 11.81042767 32.25447559 C6.81042767 27.08342296 6.81042767 27.08342296 6.81042767 24.25447559 C5.49042767 23.92447559 4.17042767 23.59447559 2.81042767 23.25447559 C2.81042767 22.26447559 2.81042767 21.27447559 2.81042767 20.25447559 C2.15042767 20.25447559 1.49042767 20.25447559 0.81042767 20.25447559 C-0.84582233 18.57478809 -0.84582233 18.57478809 -2.68957233 16.37947559 C-4.47890491 14.26412055 -6.22976358 12.21428435 -8.18957233 10.25447559 C-8.4594914 7.56608175 -8.2769459 4.96305623 -8.18957233 2.25447559 C-5.32856105 0.63464711 -3.28074431 0.00396235 0 0 Z " fill="#000000" transform="translate(8.18957233428955,116.7455244064331)"/>
<path d="M0 0 C1.45281931 -0.00573832 1.45281931 -0.00573832 2.9349885 -0.01159257 C6.18307312 -0.02191814 9.43098084 -0.01793124 12.67907715 -0.01396179 C15.00664941 -0.01830846 17.33422024 -0.02349146 19.66178894 -0.02944946 C25.98602314 -0.04285438 32.31019764 -0.04341654 38.63444328 -0.04088616 C44.57775 -0.03968252 50.52104661 -0.04589144 56.46435028 -0.05131962 C68.95292947 -0.06219414 81.44148165 -0.06003291 93.93006235 -0.05393478 C105.35598619 -0.04876396 116.78182481 -0.06002553 128.20773178 -0.07903299 C139.94084105 -0.09840188 151.67390999 -0.10666918 163.40703535 -0.10290974 C169.99394677 -0.10109406 176.58078011 -0.1037616 183.16767883 -0.11762428 C189.35975145 -0.13016822 195.55165303 -0.12829105 201.74372292 -0.11521339 C204.01855844 -0.1128407 206.29340589 -0.11560693 208.56822777 -0.12383652 C211.66897663 -0.13424682 214.76914544 -0.12624915 217.86987305 -0.11352539 C218.77405299 -0.12089968 219.67823293 -0.12827396 220.60981226 -0.13587171 C225.30948182 -0.09518588 228.70980705 0.04513581 232.43493652 3.26069641 C233.17197636 6.70159587 233.25995806 8.95835659 231.32849121 12.00727844 C229.73924621 13.88118808 228.06294888 15.60154138 226.30993652 17.32319641 C225.68772217 17.96152405 225.06550781 18.59985168 224.42443848 19.25752258 C222.44609534 21.27755162 220.44360147 23.27084912 218.43493652 25.26069641 C217.09720735 26.59874879 215.75996051 27.93728356 214.42321777 29.27632141 C212.55349073 31.14817583 210.68084153 33.01592087 208.79187012 34.86836243 C205.73360463 37.77235387 205.73360463 37.77235387 203.43493652 41.26069641 C202.77493652 41.26069641 202.11493652 41.26069641 201.43493652 41.26069641 C201.16689209 41.85543762 200.89884766 42.45017883 200.62268066 43.0629425 C199.42513953 45.27882438 198.2317467 46.68149169 196.43103027 48.42475891 C195.56768066 49.27167297 195.56768066 49.27167297 194.68688965 50.13569641 C193.78873535 51.00194641 193.78873535 51.00194641 192.87243652 51.88569641 C191.68144268 53.04229792 190.49253647 54.20105419 189.30603027 55.36225891 C188.77936768 55.8709552 188.25270508 56.37965149 187.71008301 56.90376282 C186.31851482 58.25469746 186.31851482 58.25469746 185.43493652 60.26069641 C184.77493652 60.26069641 184.11493652 60.26069641 183.43493652 60.26069641 C183.12556152 60.87944641 182.81618652 61.49819641 182.49743652 62.13569641 C181.80993652 63.51069641 181.12243652 64.88569641 180.43493652 66.26069641 C174.82076377 67.44129448 169.25014951 67.39068663 163.5332489 67.35644531 C162.55271004 67.35462732 161.57217119 67.35280932 160.56191903 67.35093623 C157.28542718 67.34357194 154.00901042 67.32887852 150.73254395 67.31416321 C148.38010778 67.30729122 146.02767034 67.30084226 143.67523193 67.29478455 C137.29346031 67.27688306 130.91173095 67.25232427 124.529989 67.22602439 C119.87725183 67.20723747 115.22450882 67.190603 110.57176274 67.17419777 C98.06603101 67.13005675 85.56032618 67.08129119 73.05463048 67.02792563 C72.34522181 67.02489868 71.63581313 67.02187173 70.90490723 67.01875305 C70.19463343 67.01572156 69.48435963 67.01269006 68.75256238 67.0095667 C57.221329 66.96060774 45.6900863 66.92170125 34.15880104 66.8873321 C22.31826597 66.85192928 10.47777773 66.80914505 -1.36270255 66.75857669 C-8.0103724 66.73033628 -14.65802629 66.70536043 -21.30573463 66.68791771 C-27.54953548 66.67126079 -33.79322453 66.64515051 -40.03695679 66.6116066 C-42.33400318 66.6008953 -44.6310684 66.59361808 -46.92813683 66.58994102 C-50.05164738 66.58441613 -53.174854 66.56676325 -56.29829407 66.54589844 C-57.21763019 66.54715105 -58.13696631 66.54840367 -59.0841611 66.54969424 C-65.33679041 66.48896948 -65.33679041 66.48896948 -67.56506348 64.26069641 C-68.1396706 60.07427311 -67.90130411 57.24539204 -65.56506348 53.76069641 C-62.90201249 50.38648977 -59.77502194 47.65388787 -56.49475098 44.89350891 C-53.03470436 41.96577716 -50.07872755 39.03119252 -47.56506348 35.26069641 C-46.90506348 35.26069641 -46.24506348 35.26069641 -45.56506348 35.26069641 C-45.56506348 34.60069641 -45.56506348 33.94069641 -45.56506348 33.26069641 C-44.90506348 33.26069641 -44.24506348 33.26069641 -43.56506348 33.26069641 C-43.2892041 32.66901672 -43.01334473 32.07733704 -42.72912598 31.46772766 C-39.71088061 25.74521548 -34.86044271 21.5466872 -29.97912598 17.42866516 C-28.01993095 15.6691939 -26.17724295 13.87997113 -24.33850098 11.99897766 C-23.48300659 11.12426819 -23.48300659 11.12426819 -22.61022949 10.23188782 C-21.47393559 9.06213113 -20.34395708 7.88619917 -19.22106934 6.7035675 C-18.69134521 6.15909973 -18.16162109 5.61463196 -17.61584473 5.05366516 C-17.14831787 4.56406311 -16.68079102 4.07446106 -16.19909668 3.57002258 C-11.29970337 -0.35578741 -5.96618928 -0.02493769 0 0 Z " fill="#000000" transform="translate(67.5650634765625,214.7393035888672)"/>
<path d="" fill="#000000" transform="translate(0,0)"/>
<path d="" fill="#000000" transform="translate(0,0)"/>
</svg>
